<?xml version="1.0" standalone="no"?>
<!DOCTYPE svg PUBLIC "-//W3C//DTD SVG 20010904//EN"
 "http://www.w3.org/TR/2001/REC-SVG-20010904/DTD/svg10.dtd">
<svg version="1.0" xmlns="http://www.w3.org/2000/svg"
 width="600.000000pt" height="600.000000pt" viewBox="0 0 600.000000 600.000000"
 preserveAspectRatio="xMidYMid meet">
<metadata>
Created by potrace 1.14, written by Peter Selinger 2001-2017
</metadata>
<g transform="translate(0.000000,600.000000) scale(0.100000,-0.100000)"
fill="#000000" stroke="none">
<path d="M0 3000 l0 -3000 3000 0 3000 0 0 3000 0 3000 -3000 0 -3000 0 0
-3000z m2551 1930 c7 11 12 12 15 3 3 -7 12 -9 20 -6 8 3 14 1 14 -5 0 -5 9
-12 20 -15 11 -3 20 -1 20 4 0 5 5 9 10 9 6 0 10 -7 10 -16 0 -14 3 -14 15 -4
12 10 15 10 15 -1 0 -11 2 -11 10 1 5 8 10 10 10 4 0 -7 6 -11 13 -11 22 1 97
-38 97 -50 0 -7 4 -13 8 -13 5 0 22 -11 37 -24 28 -24 37 -25 108 -11 9 2 14
-1 11 -6 -3 -6 4 -7 19 -4 15 4 30 1 39 -9 11 -11 18 -12 27 -3 7 7 11 8 11 0
0 -6 11 -10 25 -10 14 0 25 3 25 8 0 15 40 10 46 -5 3 -8 15 -14 27 -14 47 -1
72 -8 69 -20 -1 -8 10 -6 35 6 22 11 61 19 90 20 29 0 61 6 73 12 15 8 20 8
20 -1 0 -6 7 -8 16 -5 8 3 24 1 35 -4 10 -6 19 -7 19 -3 0 4 19 8 43 8 23 0
45 4 49 9 4 6 13 5 22 -3 10 -8 26 -10 47 -6 22 5 29 4 25 -4 -4 -6 0 -11 9
-11 9 0 13 -5 9 -11 -4 -7 0 -9 14 -5 12 4 22 1 25 -7 3 -8 17 -14 31 -14 14
0 23 3 21 7 -3 5 4 6 15 3 11 -3 20 -9 20 -14 0 -4 10 -7 23 -6 29 3 127 -24
127 -35 0 -4 9 -8 19 -8 10 0 21 -7 25 -15 3 -8 14 -15 25 -15 11 0 27 -10 36
-22 8 -13 19 -22 23 -22 10 2 52 -32 52 -42 0 -15 34 -44 52 -44 16 0 23 -11
19 -32 0 -4 6 -5 14 -2 8 4 15 2 15 -4 0 -6 14 -15 31 -21 17 -6 28 -15 24
-21 -3 -5 1 -13 10 -16 9 -4 14 -13 11 -20 -3 -8 -2 -13 2 -13 15 2 52 -14 52
-23 0 -12 47 -58 60 -58 14 0 13 -17 -2 -23 -8 -4 -7 -6 3 -6 23 -1 42 -26 42
-57 0 -15 4 -23 11 -21 8 3 10 -6 8 -29 -3 -26 0 -34 12 -34 9 0 15 -3 15 -7
-4 -28 2 -42 17 -36 13 5 15 2 9 -15 -3 -13 -2 -22 4 -22 5 0 12 -13 16 -30 4
-16 11 -30 16 -30 6 0 7 -5 4 -10 -4 -6 -1 -17 5 -25 9 -11 9 -15 1 -15 -17 0
-13 -27 6 -34 11 -5 13 -10 6 -17 -12 -12 -5 -59 8 -59 5 0 9 -14 9 -31 0 -20
4 -28 12 -23 7 4 8 3 4 -4 -4 -6 -2 -20 3 -31 6 -11 7 -21 2 -23 -5 -2 -11
-43 -15 -93 -15 -218 -51 -420 -87 -487 -5 -11 -5 -19 2 -23 5 -4 7 -16 3 -28
-4 -12 -7 -35 -5 -51 1 -15 -4 -35 -11 -43 -7 -8 -13 -32 -14 -52 -1 -20 -5
-51 -8 -68 -3 -18 -1 -35 4 -38 5 -3 6 -22 3 -43 -6 -43 -6 -53 -1 -105 4 -37
-20 -85 -36 -70 -5 5 -10 -50 -9 -94 1 -7 -5 -13 -12 -13 -17 0 -27 -27 -12
-34 8 -3 6 -9 -6 -16 -12 -8 -16 -18 -12 -31 4 -10 2 -19 -3 -19 -14 0 -22
-38 -8 -44 6 -2 1 -8 -11 -11 -13 -4 -24 -12 -24 -19 -1 -6 -2 -15 -4 -21 -1
-5 -3 -18 -3 -27 -1 -10 -9 -18 -17 -18 -8 0 -15 -4 -15 -10 0 -5 -7 -10 -16
-10 -10 0 -14 -6 -11 -14 3 -8 2 -16 -3 -18 -6 -2 -11 -15 -12 -30 -1 -15 -5
-25 -9 -22 -4 2 -10 0 -14 -5 -3 -6 -12 -8 -20 -5 -10 4 -12 0 -8 -18 6 -21 5
-22 -10 -9 -18 15 -24 2 -6 -16 7 -7 2 -15 -15 -27 -15 -9 -26 -12 -26 -6 0 5
-5 10 -11 10 -6 0 -8 -9 -4 -21 5 -13 3 -19 -3 -15 -5 3 -12 -3 -15 -14 -3
-11 -11 -19 -19 -18 -8 2 -14 -8 -16 -27 -2 -16 -11 -38 -19 -47 -9 -10 -13
-18 -9 -18 4 0 0 -8 -10 -17 -10 -10 -21 -18 -25 -18 -4 0 -17 -13 -29 -28
-12 -15 -27 -26 -33 -24 -7 2 -18 -4 -27 -14 -8 -10 -22 -19 -30 -21 -22 -4
-48 -40 -42 -57 3 -8 1 -12 -5 -8 -6 4 -14 0 -17 -9 -3 -8 -10 -13 -15 -9 -5
3 -12 1 -16 -4 -3 -6 -12 -8 -19 -5 -15 6 -56 -32 -56 -51 0 -6 -8 -11 -19
-12 -10 -1 -41 -24 -68 -52 -28 -28 -59 -51 -70 -51 -12 0 -26 -7 -33 -15 -9
-11 -15 -13 -20 -5 -4 7 -19 -7 -38 -37 -39 -60 -57 -83 -67 -83 -4 0 -2 7 5
15 8 9 9 15 2 15 -6 0 -14 -4 -17 -10 -3 -5 -16 -10 -29 -10 -13 0 -31 -9 -41
-20 -10 -11 -24 -20 -31 -20 -7 0 -17 -7 -22 -15 -4 -9 -19 -17 -31 -18 -12
-1 -36 -14 -52 -29 -16 -16 -29 -26 -29 -23 0 7 -79 -44 -104 -67 -11 -10 -26
-18 -33 -18 -7 0 -13 -4 -13 -10 0 -5 -16 -10 -35 -10 -22 0 -35 -5 -35 -13 0
-7 -10 -17 -22 -22 -13 -6 -22 -16 -21 -23 2 -6 -4 -9 -12 -6 -9 4 -21 2 -28
-4 -20 -17 -53 -18 -72 -2 -17 13 -18 13 -13 0 4 -12 -2 -15 -33 -12 -24 3
-36 8 -32 15 4 6 1 7 -6 3 -7 -5 -29 -5 -48 -1 -28 5 -33 9 -22 17 10 7 7 8
-13 4 -21 -5 -26 -3 -22 8 3 9 -6 19 -25 27 -20 9 -26 16 -18 21 7 5 -3 7 -23
6 -19 -2 -38 -7 -42 -13 -5 -6 -8 -5 -8 4 0 11 -3 11 -15 1 -8 -7 -15 -9 -15
-4 0 4 -12 -4 -27 -18 -19 -16 -38 -24 -58 -23 -16 1 -43 3 -59 3 -16 1 -27 5
-23 8 13 13 -19 31 -51 27 -18 -2 -31 0 -29 4 3 4 -6 9 -21 10 -14 0 -29 8
-34 17 -5 9 -19 16 -31 16 -18 0 -19 2 -7 10 13 9 13 11 0 20 -21 14 -33 12
-24 -2 4 -7 -2 -4 -13 7 -11 11 -19 23 -17 26 2 4 -3 10 -11 13 -9 3 -20 17
-25 32 -6 14 -19 28 -30 31 -11 3 -20 9 -20 14 0 5 -5 9 -11 9 -7 0 -20 9 -30
21 -10 11 -23 18 -28 14 -6 -3 -12 -1 -12 4 -1 6 -2 16 -3 22 0 6 -9 16 -18
23 -10 7 -18 22 -18 32 0 16 -2 17 -10 4 -6 -10 -10 -11 -10 -2 0 6 -10 12
-22 13 -13 0 -17 3 -10 6 21 8 13 23 -14 23 -14 0 -31 6 -38 13 -7 6 -27 23
-44 37 -18 14 -32 31 -32 39 0 10 -3 11 -14 2 -12 -10 -16 -8 -22 11 -4 13 -6
38 -5 57 1 21 -5 40 -16 51 -30 30 -53 60 -53 71 0 5 -12 21 -26 34 -14 13
-26 33 -27 44 -1 12 -7 21 -14 21 -7 0 -12 3 -12 8 4 25 -3 42 -18 42 -15 0
-16 2 -3 10 10 6 11 10 3 10 -7 0 -14 -1 -16 -2 -7 -6 -37 32 -37 46 0 9 -4
16 -9 16 -5 0 -13 10 -17 23 -4 12 -12 25 -18 29 -8 6 -7 8 2 8 6 0 12 7 12
16 0 10 -5 14 -16 10 -8 -3 -12 -2 -9 4 3 5 -5 22 -19 37 -15 15 -26 36 -26
47 0 14 -6 17 -25 14 -17 -4 -25 -1 -25 8 0 8 -5 14 -11 14 -6 0 -8 9 -4 21 6
18 4 20 -17 14 -22 -7 -23 -7 -3 9 12 9 15 15 7 16 -8 0 -11 7 -8 18 4 11 -1
23 -13 31 -15 11 -17 19 -10 38 12 32 12 29 -13 54 -18 17 -19 21 -5 16 15 -6
16 -4 6 14 -6 11 -8 23 -5 26 3 4 1 12 -4 18 -7 8 -4 20 10 38 23 28 26 47 8
47 -9 0 -9 3 0 12 7 7 12 19 12 28 0 10 7 31 16 49 8 17 18 57 20 88 3 31 10
66 17 77 14 27 15 47 2 65 -8 12 -6 13 8 8 13 -5 16 -3 10 6 -4 6 -8 33 -9 60
0 36 3 47 15 48 13 1 12 2 -1 6 -22 6 -22 8 -2 38 9 14 12 25 6 25 -6 0 -8 9
-5 19 3 10 -3 30 -12 44 -14 22 -14 29 -4 49 7 13 12 29 10 36 -1 8 5 23 15
33 13 14 14 19 4 19 -10 0 -11 3 -3 11 9 9 6 17 -8 32 -17 18 -17 22 -4 30 9
4 13 12 10 18 -6 8 8 13 28 10 11 -2 8 14 -5 27 -9 9 -7 16 6 31 10 11 15 25
11 31 -4 7 2 18 14 26 21 15 29 44 12 44 -10 0 -9 26 2 36 4 4 7 17 7 30 0 29
10 55 19 49 4 -2 14 11 21 30 8 19 18 35 22 35 15 0 27 44 16 57 -16 20 0 81
22 88 11 4 20 11 20 16 0 5 7 9 15 9 9 0 20 11 27 25 6 13 14 23 18 20 3 -2 4
9 2 26 -3 19 0 29 8 29 7 0 10 8 7 20 -4 15 -1 20 10 18 8 -2 20 6 27 17 12
22 35 40 52 40 14 0 38 25 47 48 4 10 11 15 17 12 5 -3 10 3 10 14 0 11 12 29
26 40 15 12 23 25 18 32 -5 8 -3 9 6 4 9 -6 12 -4 8 6 -7 17 36 64 50 55 10
-6 52 47 52 67 0 21 12 28 25 17 10 -8 14 -2 17 25 2 19 -1 36 -7 38 -5 2 1
14 15 25 14 12 31 19 39 17 9 -4 11 0 7 10 -3 9 0 15 10 15 9 0 12 5 8 12 -5
7 -2 9 8 6 11 -5 22 7 38 39 15 31 25 41 30 32 6 -8 11 0 15 25 5 27 12 36 22
32 8 -4 11 -1 7 5 -3 6 3 17 15 25 12 8 21 22 21 30 0 8 4 14 9 14 5 0 13 9
16 20 4 11 10 18 15 15 14 -9 65 24 65 42 0 10 8 19 19 21 13 3 16 0 11 -10
-5 -7 3 -3 16 8 13 12 29 20 35 17 6 -2 19 6 29 17 14 16 20 17 27 8 6 -10 10
-10 19 2z m-46 -3810 c-3 -5 -12 -10 -18 -10 -7 0 -6 4 3 10 19 12 23 12 15 0z"/>
<path d="M2840 4329 c-36 -4 -78 -11 -93 -18 -16 -6 -43 -11 -62 -11 -76 0
-303 -103 -462 -209 -204 -136 -397 -398 -476 -646 -54 -167 -61 -211 -61
-385 1 -185 16 -278 78 -461 76 -230 225 -441 407 -581 289 -221 545 -307 874
-295 214 7 330 36 521 126 139 67 242 139 342 240 190 192 314 417 368 665 32
147 28 412 -8 566 -52 224 -168 435 -334 610 -119 125 -191 177 -351 254 -235
114 -507 167 -743 145z"/>
</g>
</svg>
